<?xml version="1.0" encoding="UTF-8"?><svg id="Vrstva_1" xmlns="http://www.w3.org/2000/svg" viewBox="0 0 187.38 196.03"><defs><style>.cls-1{fill:#0f172a;}.cls-2{fill:#0a1a2b;}.cls-3{fill:#f8f8f8;}.cls-4{fill:#1e0030;}</style></defs><path class="cls-1" d="M41.76,174.12h-10.08c-1.89,0-3.42,1.53-3.42,3.42v14.74c0,1.89,1.53,3.42,3.42,3.42h3.19c1.89,0,3.42-1.53,3.42-3.42v-1.85c0-.15.12-.28.28-.28h2.51c1.89,0,3.42-1.53,3.42-3.42,0-3.21.68-6.15.68-9.2,0-1.89-1.53-3.42-3.42-3.42Z"/><path class="cls-1" d="M60.93,185.78h-3.3c-.15,0-.28-.12-.28-.28v-7.96c0-1.89-1.53-3.42-3.42-3.42h-3.19c-1.89,0-3.42,1.53-3.42,3.42v14.74c0,1.89,1.53,3.42,3.42,3.42h10.19c1.89,0,3.42-1.53,3.42-3.42v-3.08c0-1.89-1.53-3.42-3.42-3.42Z"/><path class="cls-1" d="M75.86,173.79c-5.61,0-11.3,3.82-11.3,11.12s5.68,11.12,11.3,11.12,11.3-3.82,11.3-11.12-5.68-11.12-11.3-11.12Z"/><path class="cls-1" d="M99.91,173.79c-5.61,0-11.3,3.82-11.3,11.12s5.68,11.12,11.3,11.12,11.3-3.82,11.3-11.12-5.68-11.12-11.3-11.12Z"/><path class="cls-1" d="M123.17,174.12h-6.34c-1.89,0-3.42,1.53-3.42,3.42v14.74c0,1.89,1.53,3.42,3.42,3.42h3.19c.79,0,1.51-.27,2.09-.71.1-.08.24-.08.34,0,.54.45,1.24.71,1.97.71h4.14c.66,0,1.32-.17,1.85-.56,1.31-.95,1.64-2.63.96-3.95l-1.57-3.04c-.05-.1-.04-.21.03-.3,1.22-1.46,1.9-3.37,1.9-5.48,0-4.79-3.6-8.26-8.57-8.26Z"/><path class="cls-1" d="M150.15,183.31c-.06-.08-.06-.19-.02-.28.25-.45.38-.97.38-1.52v-3.37c0-1.41-.83-2.71-2.13-3.24-1.71-.7-3.77-1.11-5.63-1.11-6.34,0-9.19,4.08-9.19,8.13,0,1.02.17,2.38.84,3.69.05.1.04.21-.03.29-.44.55-.7,1.24-.7,2v3.43c0,1.35.78,2.6,1.99,3.18.96.46,3.55,1.53,6.95,1.53,5.24,0,8.9-3.32,8.9-8.06,0-1.84-.47-3.41-1.38-4.66Z"/><path class="cls-3" d="M41.76,174.12h-10.08c-1.89,0-3.42,1.53-3.42,3.42v14.74c0,1.89,1.53,3.42,3.42,3.42h3.19c1.89,0,3.42-1.53,3.42-3.42v-1.85c0-.15.12-.28.28-.28h2.51c1.89,0,3.42-1.53,3.42-3.42,0-3.21.68-6.15.68-9.2,0-1.89-1.53-3.42-3.42-3.42Z"/><path class="cls-3" d="M60.93,185.78h-3.3c-.15,0-.28-.12-.28-.28v-7.96c0-1.89-1.53-3.42-3.42-3.42h-3.19c-1.89,0-3.42,1.53-3.42,3.42v14.74c0,1.89,1.53,3.42,3.42,3.42h10.19c1.89,0,3.42-1.53,3.42-3.42v-3.08c0-1.89-1.53-3.42-3.42-3.42Z"/><path class="cls-3" d="M75.86,173.79c-5.61,0-11.3,3.82-11.3,11.12s5.68,11.12,11.3,11.12,11.3-3.82,11.3-11.12-5.68-11.12-11.3-11.12Z"/><path class="cls-3" d="M99.91,173.79c-5.61,0-11.3,3.82-11.3,11.12s5.68,11.12,11.3,11.12,11.3-3.82,11.3-11.12-5.68-11.12-11.3-11.12Z"/><path class="cls-3" d="M123.17,174.12h-6.34c-1.89,0-3.42,1.53-3.42,3.42v14.74c0,1.89,1.53,3.42,3.42,3.42h3.19c.79,0,1.51-.27,2.09-.71.1-.08.24-.08.34,0,.54.45,1.24.71,1.97.71h4.14c.66,0,1.32-.17,1.85-.56,1.31-.95,1.64-2.63.96-3.95l-1.57-3.04c-.05-.1-.04-.21.03-.3,1.22-1.46,1.9-3.37,1.9-5.48,0-4.79-3.6-8.26-8.57-8.26Z"/><path class="cls-3" d="M150.15,183.31c-.06-.08-.06-.19-.02-.28.25-.45.38-.97.38-1.52v-3.37c0-1.41-.83-2.71-2.13-3.24-1.71-.7-3.77-1.11-5.63-1.11-6.34,0-9.19,4.08-9.19,8.13,0,1.02.17,2.38.84,3.69.05.1.04.21-.03.29-.44.55-.7,1.24-.7,2v3.43c0,1.35.78,2.6,1.99,3.18.96.46,3.55,1.53,6.95,1.53,5.24,0,8.9-3.32,8.9-8.06,0-1.84-.47-3.41-1.38-4.66Z"/><path class="cls-3" d="M147.04,43.56c-.22-.67-.53-1.3-.92-1.88-1-1.48-1.4-3.31-.83-5.01.05-.15.09-.3.13-.45.8-3.03-.55-6.19-3.43-8.04L100.41,1.43C98.95.49,97.21,0,95.38,0c-1.61,0-3.09.37-4.35,1.02-1.62.84-3.55.84-5.17,0-1.26-.65-2.74-1.02-4.35-1.02-1.84,0-3.57.49-5.03,1.43l-41.33,26.62c-2.87,1.85-4.21,4.99-3.42,8.02.04.15.08.3.13.45.57,1.69.16,3.52-.83,5-.37.56-.67,1.16-.89,1.81-.93,2.8-.08,5.76,2.23,7.7l41.32,34.89c1.67,1.41,3.84,2.19,6.11,2.19,2,0,3.85-.58,5.36-1.57,2.02-1.33,4.56-1.34,6.56,0,1.53,1.03,3.42,1.63,5.46,1.63,2.25,0,4.4-.76,6.06-2.15l41.54-34.76c2.32-1.94,3.18-4.89,2.26-7.7Z"/><path class="cls-3" d="M181.38,144.95h-7.62c-.34,0-.62-.28-.62-.62v-28.89c0-3.31-2.69-6-6-6h-9.72c-1.69,0-3.21.71-4.31,1.83-.23.24-.63.24-.86,0-1.09-1.13-2.62-1.83-4.31-1.83h-30.7c-1.39,0-2.67.48-3.68,1.27-.24.19-.57.19-.81,0-.99-.8-2.24-1.27-3.56-1.27h-11.59c-2.24,0-4.31,1.18-5.45,3.11l-3.15,5.34c-.24.41-.83.41-1.06,0l-3.15-5.35c-1.14-1.93-3.21-3.11-5.45-3.11h-11.6c-1.33,0-2.6.47-3.59,1.29-.24.2-.57.2-.82,0-1.02-.81-2.31-1.3-3.72-1.3h-10.06c-3.31,0-6,2.69-6,6v2.25c0,.61-.77.84-1.13.35-3.81-5.31-10.16-8.59-17.8-8.59H6c-3.31,0-6,2.69-6,6v44.9c0,3.31,2.69,6,6,6h9.72c3.31,0,6-2.69,6-6v-7.6c0-.55.45-1,1-1h1.91c7.63,0,13.98-3.3,17.8-8.65.35-.5,1.13-.26,1.13.35v16.91c0,3.31,2.69,6,6,6h10.06c1.25,0,2.4-.38,3.36-1.04.22-.15.51-.15.73,0,.94.66,2.06,1.03,3.24,1.03h11.72c2.23,0,4.29-1.17,5.43-3.08l3.84-6.42c.24-.4.82-.4,1.06,0l3.84,6.42c1.14,1.91,3.21,3.08,5.43,3.08h11.73c1.17,0,2.28-.36,3.21-1.01.22-.15.5-.15.72,0,.95.64,2.09,1.01,3.32,1.01h30.7c1.69,0,3.21-.71,4.31-1.83.23-.24.63-.24.86,0,1.09,1.13,2.62,1.83,4.31,1.83h23.96c3.31,0,6-2.69,6-6v-9.39c0-3.31-2.69-6-6-6ZM65.62,150.78v-27c0-.38.5-.53.71-.2l8.17,13.24c.2.32.2.73,0,1.05l-8.17,13.11c-.2.33-.71.18-.71-.2ZM102.46,136.82l8.09-13.12c.2-.33.71-.18.71.2v26.76c0,.38-.5.53-.71.2l-8.09-12.99c-.2-.32-.2-.73,0-1.05Z"/><path class="cls-1" d="M31.69,177.21h10.08c.18,0,.33.15.33.33v2.86c0,.18-.15.33-.33.33h-6.56v2.86h5.88c.18,0,.33.15.33.33v2.82c0,.18-.15.33-.33.33h-5.88v5.21c0,.18-.15.33-.33.33h-3.19c-.18,0-.33-.15-.33-.33v-14.74c0-.18.15-.33.33-.33Z"/><path class="cls-1" d="M50.74,177.21h3.19c.18,0,.33.15.33.33v11.33h6.67c.18,0,.33.15.33.33v3.08c0,.18-.15.33-.33.33h-10.19c-.18,0-.33-.15-.33-.33v-14.74c0-.18.15-.33.33-.33Z"/><path class="cls-1" d="M67.66,184.91c0-5.43,4.18-8.03,8.21-8.03s8.21,2.57,8.21,8.03-4.18,8.03-8.21,8.03-8.21-2.6-8.21-8.03ZM79.89,184.91c0-2.49-1.67-4.18-4.03-4.18s-4.03,1.69-4.03,4.18,1.69,4.18,4.03,4.18,4.03-1.67,4.03-4.18Z"/><path class="cls-1" d="M91.7,184.91c0-5.43,4.18-8.03,8.21-8.03s8.21,2.57,8.21,8.03-4.18,8.03-8.21,8.03-8.21-2.6-8.21-8.03ZM103.94,184.91c0-2.49-1.67-4.18-4.03-4.18s-4.03,1.69-4.03,4.18,1.69,4.18,4.03,4.18,4.03-1.67,4.03-4.18Z"/><path class="cls-1" d="M125.81,187.15l2.82,5.46h-4.2l-2.27-4.91h-1.8v4.58c0,.18-.15.33-.33.33h-3.19c-.18,0-.33-.15-.33-.33v-14.74c0-.18.15-.33.33-.33h6.34c3.32,0,5.48,2.16,5.48,5.17,0,2.18-1.06,3.92-2.84,4.77ZM120.36,184.29h2.02c1.19,0,2.13-.55,2.13-1.91s-.95-1.87-2.13-1.87h-2.02v3.78Z"/><path class="cls-1" d="M148.44,187.97c0,2.9-2.16,4.97-5.81,4.97-2.4,0-4.42-.65-5.61-1.22-.15-.07-.24-.23-.24-.39v-3.43c0-.09.09-.14.16-.09,1.35.8,3.85,1.51,5.69,1.51,1.17,0,1.67-.51,1.67-1.06s-.37-.99-1.21-1.17l-2.09-.46c-2.33-.51-4.33-1.67-4.33-4.71s2.13-5.04,6.09-5.04c1.65,0,3.26.4,4.4.86.17.07.27.23.27.41v3.37c0,.08-.08.13-.15.1-1.53-.67-3.24-1.12-4.67-1.12-1.23,0-1.85.51-1.85,1.14,0,.48.35.88,1.01,1.03l2.51.55c2.73.59,4.16,2.09,4.16,4.75Z"/><path class="cls-1" d="M5,115.44c0-.55.45-1,1-1h18.63c10.12,0,16.68,6.77,16.68,16.08s-6.57,16.21-16.68,16.21h-7.91v13.6c0,.55-.45,1-1,1H6c-.55,0-1-.45-1-1v-44.9ZM22.22,136.69c3.75,0,6.5-1.88,6.5-6.16s-2.75-6.03-6.5-6.03h-5.49v12.19h5.49Z"/><path class="cls-1" d="M49.56,114.44h10.06c.55,0,1,.45,1,1v44.9c0,.55-.45,1-1,1h-10.06c-.55,0-1-.45-1-1v-44.9c0-.55.45-1,1-1Z"/><path class="cls-1" d="M80.7,137.36l-13.52-21.91c-.27-.44.05-1.01.56-1.01h11.59c.47,0,.91.25,1.15.65l7.99,13.55,7.99-13.55c.24-.41.67-.65,1.15-.65h11.59c.52,0,.83.57.56,1.01l-13.52,21.91,14.31,22.97c.27.44-.04,1.01-.56,1.01h-11.73c-.47,0-.9-.25-1.14-.65l-8.66-14.49-8.66,14.49c-.24.4-.67.65-1.14.65h-11.72c-.52,0-.83-.57-.56-1.01l14.31-22.97Z"/><path class="cls-1" d="M117.26,114.44h30.7c.55,0,1,.45,1,1v8.39c0,.55-.45,1-1,1h-20.31v7.84h18.23c.55,0,1,.45,1,1v8.38c0,.55-.45,1-1,1h-18.23v7.57h20.31c.55,0,1,.45,1,1v8.72c0,.55-.45,1-1,1h-30.7c-.55,0-1-.45-1-1v-44.9c0-.55.45-1,1-1Z"/><path class="cls-1" d="M157.42,114.44h9.72c.55,0,1,.45,1,1v34.51h13.24c.55,0,1,.45,1,1v9.39c0,.55-.45,1-1,1h-23.96c-.55,0-1-.45-1-1v-44.9c0-.55.45-1,1-1Z"/><path class="cls-2" d="M31.69,177.21h10.08c.18,0,.33.15.33.33v2.86c0,.18-.15.33-.33.33h-6.56v2.86h5.88c.18,0,.33.15.33.33v2.82c0,.18-.15.33-.33.33h-5.88v5.21c0,.18-.15.33-.33.33h-3.19c-.18,0-.33-.15-.33-.33v-14.74c0-.18.15-.33.33-.33Z"/><path class="cls-2" d="M50.74,177.21h3.19c.18,0,.33.15.33.33v11.33h6.67c.18,0,.33.15.33.33v3.08c0,.18-.15.33-.33.33h-10.19c-.18,0-.33-.15-.33-.33v-14.74c0-.18.15-.33.33-.33Z"/><path class="cls-2" d="M67.66,184.91c0-5.43,4.18-8.03,8.21-8.03s8.21,2.57,8.21,8.03-4.18,8.03-8.21,8.03-8.21-2.6-8.21-8.03ZM79.89,184.91c0-2.49-1.67-4.18-4.03-4.18s-4.03,1.69-4.03,4.18,1.69,4.18,4.03,4.18,4.03-1.67,4.03-4.18Z"/><path class="cls-2" d="M91.7,184.91c0-5.43,4.18-8.03,8.21-8.03s8.21,2.57,8.21,8.03-4.18,8.03-8.21,8.03-8.21-2.6-8.21-8.03ZM103.94,184.91c0-2.49-1.67-4.18-4.03-4.18s-4.03,1.69-4.03,4.18,1.69,4.18,4.03,4.18,4.03-1.67,4.03-4.18Z"/><path class="cls-2" d="M125.81,187.15l2.82,5.46h-4.2l-2.27-4.91h-1.8v4.58c0,.18-.15.33-.33.33h-3.19c-.18,0-.33-.15-.33-.33v-14.74c0-.18.15-.33.33-.33h6.34c3.32,0,5.48,2.16,5.48,5.17,0,2.18-1.06,3.92-2.84,4.77ZM120.36,184.29h2.02c1.19,0,2.13-.55,2.13-1.91s-.95-1.87-2.13-1.87h-2.02v3.78Z"/><path class="cls-2" d="M148.44,187.97c0,2.9-2.16,4.97-5.81,4.97-2.4,0-4.42-.65-5.61-1.22-.15-.07-.24-.23-.24-.39v-3.43c0-.09.09-.14.16-.09,1.35.8,3.85,1.51,5.69,1.51,1.17,0,1.67-.51,1.67-1.06s-.37-.99-1.21-1.17l-2.09-.46c-2.33-.51-4.33-1.67-4.33-4.71s2.13-5.04,6.09-5.04c1.65,0,3.26.4,4.4.86.17.07.27.23.27.41v3.37c0,.08-.08.13-.15.1-1.53-.67-3.24-1.12-4.67-1.12-1.23,0-1.85.51-1.85,1.14,0,.48.35.88,1.01,1.03l2.51.55c2.73.59,4.16,2.09,4.16,4.75Z"/><path class="cls-2" d="M5,115.44c0-.55.45-1,1-1h18.63c10.12,0,16.68,6.77,16.68,16.08s-6.57,16.21-16.68,16.21h-7.91v13.6c0,.55-.45,1-1,1H6c-.55,0-1-.45-1-1v-44.9ZM22.22,136.69c3.75,0,6.5-1.88,6.5-6.16s-2.75-6.03-6.5-6.03h-5.49v12.19h5.49Z"/><path class="cls-2" d="M49.56,114.44h10.06c.55,0,1,.45,1,1v44.9c0,.55-.45,1-1,1h-10.06c-.55,0-1-.45-1-1v-44.9c0-.55.45-1,1-1Z"/><path class="cls-2" d="M80.7,137.36l-13.52-21.91c-.27-.44.05-1.01.56-1.01h11.59c.47,0,.91.25,1.15.65l7.99,13.55,7.99-13.55c.24-.41.67-.65,1.15-.65h11.59c.52,0,.83.57.56,1.01l-13.52,21.91,14.31,22.97c.27.44-.04,1.01-.56,1.01h-11.73c-.47,0-.9-.25-1.14-.65l-8.66-14.49-8.66,14.49c-.24.4-.67.65-1.14.65h-11.72c-.52,0-.83-.57-.56-1.01l14.31-22.97Z"/><path class="cls-2" d="M117.26,114.44h30.7c.55,0,1,.45,1,1v8.39c0,.55-.45,1-1,1h-20.31v7.84h18.23c.55,0,1,.45,1,1v8.38c0,.55-.45,1-1,1h-18.23v7.57h20.31c.55,0,1,.45,1,1v8.72c0,.55-.45,1-1,1h-30.7c-.55,0-1-.45-1-1v-44.9c0-.55.45-1,1-1Z"/><path class="cls-2" d="M157.42,114.44h9.72c.55,0,1,.45,1,1v34.51h13.24c.55,0,1,.45,1,1v9.39c0,.55-.45,1-1,1h-23.96c-.55,0-1-.45-1-1v-44.9c0-.55.45-1,1-1Z"/><path class="cls-1" d="M100.3,29.5l12.88-11.04c1.08-.93.89-2.3-.43-3.15l-15.04-9.68c-2.02-1.3-5.39-.48-5.6,1.36l-1.9,17.04c.64.14,1.24.36,1.75.65l8.34,4.82Z"/><path class="cls-1" d="M138.54,42.71l-26.57-1.62c.06-.43.09-.93.09-1.47,0-.48-.03-.93-.07-1.32l25.69-1.49c3.07-.18,4.02-2.86,1.61-4.42l-16.71-10.75c-1.37-.88-3.42-.94-4.72-.14l-15.18,9.37,6.61,3.81c.98.57,1.48,1.31,1.48,2.06s-.49,1.48-1.46,2.04l-17.21,10c-1.95,1.13-5.12,1.13-7.08,0l-17.33-10c-.99-.57-1.48-1.31-1.48-2.06s.49-1.48,1.46-2.04l6.61-3.84-15.14-9.39c-1.3-.8-3.33-.75-4.69.13l-16.57,10.68c-2.39,1.54-1.44,4.22,1.59,4.4l25.52,1.56c-.05.42-.08.89-.08,1.4s.03.98.08,1.4l-26.37,1.53c-3.15.18-4.99,3-3.01,4.67l14.83,12.53c1.31,1.11,3.59,1.18,5.22.18l17.77-10.97,2.51,1.45-15.63,13.4c-1.41,1.21-1.47,3.03-.1,4.19l16.72,14.12c2.43,2.05,6.71.78,7.03-2.07l2.66-23.82c1.19.27,2.51.28,3.71.03l2.68,23.82c.32,2.86,4.61,4.16,7.04,2.13l16.77-14.04c1.37-1.15,1.32-2.97-.11-4.2l-15.7-13.5,2.5-1.45,17.87,11.09c1.64,1.02,3.93.95,5.25-.15l14.95-12.51c2-1.67.14-4.51-3.04-4.71Z"/><path class="cls-1" d="M76.63,29.47l8.24-4.79c.53-.31,1.17-.53,1.83-.67l-1.91-17.02c-.21-1.84-3.58-2.66-5.59-1.36l-14.99,9.65c-1.32.85-1.51,2.21-.43,3.14l12.84,11.05Z"/><path class="cls-2" d="M100.3,29.5l12.88-11.04c1.08-.93.89-2.3-.43-3.15l-15.04-9.68c-2.02-1.3-5.39-.48-5.6,1.36l-1.9,17.04c.64.14,1.24.36,1.75.65l8.34,4.82Z"/><path class="cls-2" d="M138.54,42.71l-26.57-1.62c.06-.43.09-.93.09-1.47,0-.48-.03-.93-.07-1.32l25.69-1.49c3.07-.18,4.02-2.86,1.61-4.42l-16.71-10.75c-1.37-.88-3.42-.94-4.72-.14l-15.18,9.37,6.61,3.81c.98.57,1.48,1.31,1.48,2.06s-.49,1.48-1.46,2.04l-17.21,10c-1.95,1.13-5.12,1.13-7.08,0l-17.33-10c-.99-.57-1.48-1.31-1.48-2.06s.49-1.48,1.46-2.04l6.61-3.84-15.14-9.39c-1.3-.8-3.33-.75-4.69.13l-16.57,10.68c-2.39,1.54-1.44,4.22,1.59,4.4l25.52,1.56c-.05.42-.08.89-.08,1.4s.03.98.08,1.4l-26.37,1.53c-3.15.18-4.99,3-3.01,4.67l14.83,12.53c1.31,1.11,3.59,1.18,5.22.18l17.77-10.97,2.51,1.45-15.63,13.4c-1.41,1.21-1.47,3.03-.1,4.19l16.72,14.12c2.43,2.05,6.71.78,7.03-2.07l2.66-23.82c1.19.27,2.51.28,3.71.03l2.68,23.82c.32,2.86,4.61,4.16,7.04,2.13l16.77-14.04c1.37-1.15,1.32-2.97-.11-4.2l-15.7-13.5,2.5-1.45,17.87,11.09c1.64,1.02,3.93.95,5.25-.15l14.95-12.51c2-1.67.14-4.51-3.04-4.71Z"/><path class="cls-2" d="M76.63,29.47l8.24-4.79c.53-.31,1.17-.53,1.83-.67l-1.91-17.02c-.21-1.84-3.58-2.66-5.59-1.36l-14.99,9.65c-1.32.85-1.51,2.21-.43,3.14l12.84,11.05Z"/><path class="cls-4" d="M31.69,177.21h10.08c.18,0,.33.15.33.33v2.86c0,.18-.15.33-.33.33h-6.56v2.86h5.88c.18,0,.33.15.33.33v2.82c0,.18-.15.33-.33.33h-5.88v5.21c0,.18-.15.33-.33.33h-3.19c-.18,0-.33-.15-.33-.33v-14.74c0-.18.15-.33.33-.33Z"/><path class="cls-4" d="M50.74,177.21h3.19c.18,0,.33.15.33.33v11.33h6.67c.18,0,.33.15.33.33v3.08c0,.18-.15.33-.33.33h-10.19c-.18,0-.33-.15-.33-.33v-14.74c0-.18.15-.33.33-.33Z"/><path class="cls-4" d="M67.66,184.91c0-5.43,4.18-8.03,8.21-8.03s8.21,2.57,8.21,8.03-4.18,8.03-8.21,8.03-8.21-2.6-8.21-8.03ZM79.89,184.91c0-2.49-1.67-4.18-4.03-4.18s-4.03,1.69-4.03,4.18,1.69,4.18,4.03,4.18,4.03-1.67,4.03-4.18Z"/><path class="cls-4" d="M91.7,184.91c0-5.43,4.18-8.03,8.21-8.03s8.21,2.57,8.21,8.03-4.18,8.03-8.21,8.03-8.21-2.6-8.21-8.03ZM103.94,184.91c0-2.49-1.67-4.18-4.03-4.18s-4.03,1.69-4.03,4.18,1.69,4.18,4.03,4.18,4.03-1.67,4.03-4.18Z"/><path class="cls-4" d="M125.81,187.15l2.82,5.46h-4.2l-2.27-4.91h-1.8v4.58c0,.18-.15.33-.33.33h-3.19c-.18,0-.33-.15-.33-.33v-14.74c0-.18.15-.33.33-.33h6.34c3.32,0,5.48,2.16,5.48,5.17,0,2.18-1.06,3.92-2.84,4.77ZM120.36,184.29h2.02c1.19,0,2.13-.55,2.13-1.91s-.95-1.87-2.13-1.87h-2.02v3.78Z"/><path class="cls-4" d="M148.44,187.97c0,2.9-2.16,4.97-5.81,4.97-2.4,0-4.42-.65-5.61-1.22-.15-.07-.24-.23-.24-.39v-3.43c0-.09.09-.14.16-.09,1.35.8,3.85,1.51,5.69,1.51,1.17,0,1.67-.51,1.67-1.06s-.37-.99-1.21-1.17l-2.09-.46c-2.33-.51-4.33-1.67-4.33-4.71s2.13-5.04,6.09-5.04c1.65,0,3.26.4,4.4.86.17.07.27.23.27.41v3.37c0,.08-.08.13-.15.1-1.53-.67-3.24-1.12-4.67-1.12-1.23,0-1.85.51-1.85,1.14,0,.48.35.88,1.01,1.03l2.51.55c2.73.59,4.16,2.09,4.16,4.75Z"/><path class="cls-4" d="M5,115.44c0-.55.45-1,1-1h18.63c10.12,0,16.68,6.77,16.68,16.08s-6.57,16.21-16.68,16.21h-7.91v13.6c0,.55-.45,1-1,1H6c-.55,0-1-.45-1-1v-44.9ZM22.22,136.69c3.75,0,6.5-1.88,6.5-6.16s-2.75-6.03-6.5-6.03h-5.49v12.19h5.49Z"/><path class="cls-4" d="M49.56,114.44h10.06c.55,0,1,.45,1,1v44.9c0,.55-.45,1-1,1h-10.06c-.55,0-1-.45-1-1v-44.9c0-.55.45-1,1-1Z"/><path class="cls-4" d="M80.7,137.36l-13.52-21.91c-.27-.44.05-1.01.56-1.01h11.59c.47,0,.91.25,1.15.65l7.99,13.55,7.99-13.55c.24-.41.67-.65,1.15-.65h11.59c.52,0,.83.57.56,1.01l-13.52,21.91,14.31,22.97c.27.44-.04,1.01-.56,1.01h-11.73c-.47,0-.9-.25-1.14-.65l-8.66-14.49-8.66,14.49c-.24.4-.67.65-1.14.65h-11.72c-.52,0-.83-.57-.56-1.01l14.31-22.97Z"/><path class="cls-4" d="M117.26,114.44h30.7c.55,0,1,.45,1,1v8.39c0,.55-.45,1-1,1h-20.31v7.84h18.23c.55,0,1,.45,1,1v8.38c0,.55-.45,1-1,1h-18.23v7.57h20.31c.55,0,1,.45,1,1v8.72c0,.55-.45,1-1,1h-30.7c-.55,0-1-.45-1-1v-44.9c0-.55.45-1,1-1Z"/><path class="cls-4" d="M157.42,114.44h9.72c.55,0,1,.45,1,1v34.51h13.24c.55,0,1,.45,1,1v9.39c0,.55-.45,1-1,1h-23.96c-.55,0-1-.45-1-1v-44.9c0-.55.45-1,1-1Z"/><path class="cls-4" d="M31.69,177.21h10.08c.18,0,.33.15.33.33v2.86c0,.18-.15.33-.33.33h-6.56v2.86h5.88c.18,0,.33.15.33.33v2.82c0,.18-.15.33-.33.33h-5.88v5.21c0,.18-.15.33-.33.33h-3.19c-.18,0-.33-.15-.33-.33v-14.74c0-.18.15-.33.33-.33Z"/><path class="cls-4" d="M50.74,177.21h3.19c.18,0,.33.15.33.33v11.33h6.67c.18,0,.33.15.33.33v3.08c0,.18-.15.33-.33.33h-10.19c-.18,0-.33-.15-.33-.33v-14.74c0-.18.15-.33.33-.33Z"/><path class="cls-4" d="M67.66,184.91c0-5.43,4.18-8.03,8.21-8.03s8.21,2.57,8.21,8.03-4.18,8.03-8.21,8.03-8.21-2.6-8.21-8.03ZM79.89,184.91c0-2.49-1.67-4.18-4.03-4.18s-4.03,1.69-4.03,4.18,1.69,4.18,4.03,4.18,4.03-1.67,4.03-4.18Z"/><path class="cls-4" d="M91.7,184.91c0-5.43,4.18-8.03,8.21-8.03s8.21,2.57,8.21,8.03-4.18,8.03-8.21,8.03-8.21-2.6-8.21-8.03ZM103.94,184.91c0-2.49-1.67-4.18-4.03-4.18s-4.03,1.69-4.03,4.18,1.69,4.18,4.03,4.18,4.03-1.67,4.03-4.18Z"/><path class="cls-4" d="M125.81,187.15l2.82,5.46h-4.2l-2.27-4.91h-1.8v4.58c0,.18-.15.33-.33.33h-3.19c-.18,0-.33-.15-.33-.33v-14.74c0-.18.15-.33.33-.33h6.34c3.32,0,5.48,2.16,5.48,5.17,0,2.18-1.06,3.92-2.84,4.77ZM120.36,184.29h2.02c1.19,0,2.13-.55,2.13-1.91s-.95-1.87-2.13-1.87h-2.02v3.78Z"/><path class="cls-4" d="M148.44,187.97c0,2.9-2.16,4.97-5.81,4.97-2.4,0-4.42-.65-5.61-1.22-.15-.07-.24-.23-.24-.39v-3.43c0-.09.09-.14.16-.09,1.35.8,3.85,1.51,5.69,1.51,1.17,0,1.67-.51,1.67-1.06s-.37-.99-1.21-1.17l-2.09-.46c-2.33-.51-4.33-1.67-4.33-4.71s2.13-5.04,6.09-5.04c1.65,0,3.26.4,4.4.86.17.07.27.23.27.41v3.37c0,.08-.08.13-.15.1-1.53-.67-3.24-1.12-4.67-1.12-1.23,0-1.85.51-1.85,1.14,0,.48.35.88,1.01,1.03l2.51.55c2.73.59,4.16,2.09,4.16,4.75Z"/><path class="cls-4" d="M5,115.44c0-.55.45-1,1-1h18.63c10.12,0,16.68,6.77,16.68,16.08s-6.57,16.21-16.68,16.21h-7.91v13.6c0,.55-.45,1-1,1H6c-.55,0-1-.45-1-1v-44.9ZM22.22,136.69c3.75,0,6.5-1.88,6.5-6.16s-2.75-6.03-6.5-6.03h-5.49v12.19h5.49Z"/><path class="cls-4" d="M49.56,114.44h10.06c.55,0,1,.45,1,1v44.9c0,.55-.45,1-1,1h-10.06c-.55,0-1-.45-1-1v-44.9c0-.55.45-1,1-1Z"/><path class="cls-4" d="M80.7,137.36l-13.52-21.91c-.27-.44.05-1.01.56-1.01h11.59c.47,0,.91.25,1.15.65l7.99,13.55,7.99-13.55c.24-.41.67-.65,1.15-.65h11.59c.52,0,.83.57.56,1.01l-13.52,21.91,14.31,22.97c.27.44-.04,1.01-.56,1.01h-11.73c-.47,0-.9-.25-1.14-.65l-8.66-14.49-8.66,14.49c-.24.4-.67.65-1.14.65h-11.72c-.52,0-.83-.57-.56-1.01l14.31-22.97Z"/><path class="cls-4" d="M117.26,114.44h30.7c.55,0,1,.45,1,1v8.39c0,.55-.45,1-1,1h-20.31v7.84h18.23c.55,0,1,.45,1,1v8.38c0,.55-.45,1-1,1h-18.23v7.57h20.31c.55,0,1,.45,1,1v8.72c0,.55-.45,1-1,1h-30.7c-.55,0-1-.45-1-1v-44.9c0-.55.45-1,1-1Z"/><path class="cls-4" d="M157.42,114.44h9.72c.55,0,1,.45,1,1v34.51h13.24c.55,0,1,.45,1,1v9.39c0,.55-.45,1-1,1h-23.96c-.55,0-1-.45-1-1v-44.9c0-.55.45-1,1-1Z"/><path class="cls-4" d="M31.69,177.21h10.08c.18,0,.33.15.33.33v2.86c0,.18-.15.33-.33.33h-6.56v2.86h5.88c.18,0,.33.15.33.33v2.82c0,.18-.15.33-.33.33h-5.88v5.21c0,.18-.15.33-.33.33h-3.19c-.18,0-.33-.15-.33-.33v-14.74c0-.18.15-.33.33-.33Z"/><path class="cls-4" d="M50.74,177.21h3.19c.18,0,.33.15.33.33v11.33h6.67c.18,0,.33.15.33.33v3.08c0,.18-.15.33-.33.33h-10.19c-.18,0-.33-.15-.33-.33v-14.74c0-.18.15-.33.33-.33Z"/><path class="cls-4" d="M67.66,184.91c0-5.43,4.18-8.03,8.21-8.03s8.21,2.57,8.21,8.03-4.18,8.03-8.21,8.03-8.21-2.6-8.21-8.03ZM79.89,184.91c0-2.49-1.67-4.18-4.03-4.18s-4.03,1.69-4.03,4.18,1.69,4.18,4.03,4.18,4.03-1.67,4.03-4.18Z"/><path class="cls-4" d="M91.7,184.91c0-5.43,4.18-8.03,8.21-8.03s8.21,2.57,8.21,8.03-4.18,8.03-8.21,8.03-8.21-2.6-8.21-8.03ZM103.94,184.91c0-2.49-1.67-4.18-4.03-4.18s-4.03,1.69-4.03,4.18,1.69,4.18,4.03,4.18,4.03-1.67,4.03-4.18Z"/><path class="cls-4" d="M125.81,187.15l2.82,5.46h-4.2l-2.27-4.91h-1.8v4.58c0,.18-.15.33-.33.33h-3.19c-.18,0-.33-.15-.33-.33v-14.74c0-.18.15-.33.33-.33h6.34c3.32,0,5.48,2.16,5.48,5.17,0,2.18-1.06,3.92-2.84,4.77ZM120.36,184.29h2.02c1.19,0,2.13-.55,2.13-1.91s-.95-1.87-2.13-1.87h-2.02v3.78Z"/><path class="cls-4" d="M148.44,187.97c0,2.9-2.16,4.97-5.81,4.97-2.4,0-4.42-.65-5.61-1.22-.15-.07-.24-.23-.24-.39v-3.43c0-.09.09-.14.16-.09,1.35.8,3.85,1.51,5.69,1.51,1.17,0,1.67-.51,1.67-1.06s-.37-.99-1.21-1.17l-2.09-.46c-2.33-.51-4.33-1.67-4.33-4.71s2.13-5.04,6.09-5.04c1.65,0,3.26.4,4.4.86.17.07.27.23.27.41v3.37c0,.08-.08.13-.15.1-1.53-.67-3.24-1.12-4.67-1.12-1.23,0-1.85.51-1.85,1.14,0,.48.35.88,1.01,1.03l2.51.55c2.73.59,4.16,2.09,4.16,4.75Z"/><path class="cls-4" d="M5,115.44c0-.55.45-1,1-1h18.63c10.12,0,16.68,6.77,16.68,16.08s-6.57,16.21-16.68,16.21h-7.91v13.6c0,.55-.45,1-1,1H6c-.55,0-1-.45-1-1v-44.9ZM22.22,136.69c3.75,0,6.5-1.88,6.5-6.16s-2.75-6.03-6.5-6.03h-5.49v12.19h5.49Z"/><path class="cls-4" d="M49.56,114.44h10.06c.55,0,1,.45,1,1v44.9c0,.55-.45,1-1,1h-10.06c-.55,0-1-.45-1-1v-44.9c0-.55.45-1,1-1Z"/><path class="cls-4" d="M80.7,137.36l-13.52-21.91c-.27-.44.05-1.01.56-1.01h11.59c.47,0,.91.25,1.15.65l7.99,13.55,7.99-13.55c.24-.41.67-.65,1.15-.65h11.59c.52,0,.83.57.56,1.01l-13.52,21.91,14.31,22.97c.27.44-.04,1.01-.56,1.01h-11.73c-.47,0-.9-.25-1.14-.65l-8.66-14.49-8.66,14.49c-.24.4-.67.65-1.14.65h-11.72c-.52,0-.83-.57-.56-1.01l14.31-22.97Z"/><path class="cls-4" d="M117.26,114.44h30.7c.55,0,1,.45,1,1v8.39c0,.55-.45,1-1,1h-20.31v7.84h18.23c.55,0,1,.45,1,1v8.38c0,.55-.45,1-1,1h-18.23v7.57h20.31c.55,0,1,.45,1,1v8.72c0,.55-.45,1-1,1h-30.7c-.55,0-1-.45-1-1v-44.9c0-.55.45-1,1-1Z"/><path class="cls-4" d="M157.42,114.44h9.72c.55,0,1,.45,1,1v34.51h13.24c.55,0,1,.45,1,1v9.39c0,.55-.45,1-1,1h-23.96c-.55,0-1-.45-1-1v-44.9c0-.55.45-1,1-1Z"/><path class="cls-4" d="M100.3,29.5l12.88-11.04c1.08-.93.89-2.3-.43-3.15l-15.04-9.68c-2.02-1.3-5.39-.48-5.6,1.36l-1.9,17.04c.64.14,1.24.36,1.75.65l8.34,4.82Z"/><path class="cls-4" d="M138.54,42.71l-26.57-1.62c.06-.43.09-.93.09-1.47,0-.48-.03-.93-.07-1.32l25.69-1.49c3.07-.18,4.02-2.86,1.61-4.42l-16.71-10.75c-1.37-.88-3.42-.94-4.72-.14l-15.18,9.37,6.61,3.81c.98.57,1.48,1.31,1.48,2.06s-.49,1.48-1.46,2.04l-17.21,10c-1.95,1.13-5.12,1.13-7.08,0l-17.33-10c-.99-.57-1.48-1.31-1.48-2.06s.49-1.48,1.46-2.04l6.61-3.84-15.14-9.39c-1.3-.8-3.33-.75-4.69.13l-16.57,10.68c-2.39,1.54-1.44,4.22,1.59,4.4l25.52,1.56c-.05.42-.08.89-.08,1.4s.03.98.08,1.4l-26.37,1.53c-3.15.18-4.99,3-3.01,4.67l14.83,12.53c1.31,1.11,3.59,1.18,5.22.18l17.77-10.97,2.51,1.45-15.63,13.4c-1.41,1.21-1.47,3.03-.1,4.19l16.72,14.12c2.43,2.05,6.71.78,7.03-2.07l2.66-23.82c1.19.27,2.51.28,3.71.03l2.68,23.82c.32,2.86,4.61,4.16,7.04,2.13l16.77-14.04c1.37-1.15,1.32-2.97-.11-4.2l-15.7-13.5,2.5-1.45,17.87,11.09c1.64,1.02,3.93.95,5.25-.15l14.95-12.51c2-1.67.14-4.51-3.04-4.71Z"/><path class="cls-4" d="M76.63,29.47l8.24-4.79c.53-.31,1.17-.53,1.83-.67l-1.91-17.02c-.21-1.84-3.58-2.66-5.59-1.36l-14.99,9.65c-1.32.85-1.51,2.21-.43,3.14l12.84,11.05Z"/><path class="cls-4" d="M100.3,29.5l12.88-11.04c1.08-.93.89-2.3-.43-3.15l-15.04-9.68c-2.02-1.3-5.39-.48-5.6,1.36l-1.9,17.04c.64.14,1.24.36,1.75.65l8.34,4.82Z"/><path class="cls-4" d="M138.54,42.71l-26.57-1.62c.06-.43.09-.93.09-1.47,0-.48-.03-.93-.07-1.32l25.69-1.49c3.07-.18,4.02-2.86,1.61-4.42l-16.71-10.75c-1.37-.88-3.42-.94-4.72-.14l-15.18,9.37,6.61,3.81c.98.57,1.48,1.31,1.48,2.06s-.49,1.48-1.46,2.04l-17.21,10c-1.95,1.13-5.12,1.13-7.08,0l-17.33-10c-.99-.57-1.48-1.31-1.48-2.06s.49-1.48,1.46-2.04l6.61-3.84-15.14-9.39c-1.3-.8-3.33-.75-4.69.13l-16.57,10.68c-2.39,1.54-1.44,4.22,1.59,4.4l25.52,1.56c-.05.42-.08.89-.08,1.4s.03.98.08,1.4l-26.37,1.53c-3.15.18-4.99,3-3.01,4.67l14.83,12.53c1.31,1.11,3.59,1.18,5.22.18l17.77-10.97,2.51,1.45-15.63,13.4c-1.41,1.21-1.47,3.03-.1,4.19l16.72,14.12c2.43,2.05,6.71.78,7.03-2.07l2.66-23.82c1.19.27,2.51.28,3.71.03l2.68,23.82c.32,2.86,4.61,4.16,7.04,2.13l16.77-14.04c1.37-1.15,1.32-2.97-.11-4.2l-15.7-13.5,2.5-1.45,17.87,11.09c1.64,1.02,3.93.95,5.25-.15l14.95-12.51c2-1.67.14-4.51-3.04-4.71Z"/><path class="cls-4" d="M76.63,29.47l8.24-4.79c.53-.31,1.17-.53,1.83-.67l-1.91-17.02c-.21-1.84-3.58-2.66-5.59-1.36l-14.99,9.65c-1.32.85-1.51,2.21-.43,3.14l12.84,11.05Z"/><path class="cls-4" d="M100.3,29.5l12.88-11.04c1.08-.93.89-2.3-.43-3.15l-15.04-9.68c-2.02-1.3-5.39-.48-5.6,1.36l-1.9,17.04c.64.14,1.24.36,1.75.65l8.34,4.82Z"/><path class="cls-4" d="M138.54,42.71l-26.57-1.62c.06-.43.09-.93.09-1.47,0-.48-.03-.93-.07-1.32l25.69-1.49c3.07-.18,4.02-2.86,1.61-4.42l-16.71-10.75c-1.37-.88-3.42-.94-4.72-.14l-15.18,9.37,6.61,3.81c.98.57,1.48,1.31,1.48,2.06s-.49,1.48-1.46,2.04l-17.21,10c-1.95,1.13-5.12,1.13-7.08,0l-17.33-10c-.99-.57-1.48-1.31-1.48-2.06s.49-1.48,1.46-2.04l6.61-3.84-15.14-9.39c-1.3-.8-3.33-.75-4.69.13l-16.57,10.68c-2.39,1.54-1.44,4.22,1.59,4.4l25.52,1.56c-.05.42-.08.89-.08,1.4s.03.98.08,1.4l-26.37,1.53c-3.15.18-4.99,3-3.01,4.67l14.83,12.53c1.31,1.11,3.59,1.18,5.22.18l17.77-10.97,2.51,1.45-15.63,13.4c-1.41,1.21-1.47,3.03-.1,4.19l16.72,14.12c2.43,2.05,6.71.78,7.03-2.07l2.66-23.82c1.19.27,2.51.28,3.71.03l2.68,23.82c.32,2.86,4.61,4.16,7.04,2.13l16.77-14.04c1.37-1.15,1.32-2.97-.11-4.2l-15.7-13.5,2.5-1.45,17.87,11.09c1.64,1.02,3.93.95,5.25-.15l14.95-12.51c2-1.67.14-4.51-3.04-4.71Z"/><path class="cls-4" d="M76.63,29.47l8.24-4.79c.53-.31,1.17-.53,1.83-.67l-1.91-17.02c-.21-1.84-3.58-2.66-5.59-1.36l-14.99,9.65c-1.32.85-1.51,2.21-.43,3.14l12.84,11.05Z"/></svg>