<?xml version="1.0" encoding="UTF-8"?>
<svg id="Vrstva_1" xmlns="http://www.w3.org/2000/svg" width="249.4" height="78.2" xmlns:xlink="http://www.w3.org/1999/xlink" version="1.1" viewBox="0 0 249.4 78.2">
  <!-- Generator: Adobe Illustrator 30.1.0, SVG Export Plug-In . SVG Version: 2.1.1 Build 136)  -->
  <defs>
    <clipPath id="clippath">
      <path d="M76,31.8c0,.7-.5,1.5-1.5,2l-17.2,10c-2,1.1-5.1,1.1-7.1,0l-17.3-10c-1-.6-1.5-1.3-1.5-2.1s.5-1.5,1.5-2l17.2-10c2-1.1,5.1-1.1,7.1,0l17.3,10c1,.6,1.5,1.3,1.5,2.1Z" fill="none"/>
    </clipPath>
    <clipPath id="clippath-1">
      <path d="M76,31.8c0,.7-.5,1.5-1.5,2l-17.2,10c-2,1.1-5.1,1.1-7.1,0l-17.3-10c-1-.6-1.5-1.3-1.5-2.1s.5-1.5,1.5-2l17.2-10c2-1.1,5.1-1.1,7.1,0l17.3,10c1,.6,1.5,1.3,1.5,2.1Z" fill="none"/>
    </clipPath>
  </defs>
  <path d="M192.3,58.6c0-6.9,5.3-10.2,10.4-10.2s10.4,3.3,10.4,10.2-5.3,10.2-10.4,10.2-10.4-3.3-10.4-10.2ZM207.9,58.6c0-3.2-2.1-5.3-5.1-5.3s-5.1,2.2-5.1,5.3,2.1,5.3,5.1,5.3,5.1-2.1,5.1-5.3Z" fill="#1e0030"/>
  <path d="M137.4,48.8h12.8c.2,0,.4.2.4.4v3.6c0,.2-.2.4-.4.4h-8.3v3.6h7.5c.2,0,.4.2.4.4v3.6c0,.2-.2.4-.4.4h-7.5v6.6c0,.2-.2.4-.4.4h-4.1c-.2,0-.4-.2-.4-.4v-18.7c0-.2.2-.4.4-.4h0Z" fill="#1e0030"/>
  <path d="M154.2,48.8h4.1c.2,0,.4.2.4.4v14.4h8.5c.2,0,.4.2.4.4v3.9c0,.2-.2.4-.4.4h-12.9c-.2,0-.4-.2-.4-.4v-18.7c0-.2.2-.4.4-.4h0Z" fill="#1e0030"/>
  <path d="M169.2,58.6c0-6.9,5.3-10.2,10.4-10.2s10.4,3.3,10.4,10.2-5.3,10.2-10.4,10.2-10.4-3.3-10.4-10.2h0ZM184.8,58.6c0-3.2-2.1-5.3-5.1-5.3s-5.1,2.2-5.1,5.3,2.1,5.3,5.1,5.3,5.1-2.1,5.1-5.3Z" fill="#1e0030"/>
  <path d="M228.2,61.4l3.6,6.9h-5.3l-2.9-6.2h-2.3v5.8c0,.2-.2.4-.4.4h-4.1c-.2,0-.4-.2-.4-.4v-18.7c0-.2.2-.4.4-.4h8.1c4.2,0,7,2.7,7,6.6s-1.3,5-3.6,6.1h0ZM221.2,57.8h2.6c1.5,0,2.7-.7,2.7-2.4s-1.2-2.4-2.7-2.4h-2.6v4.8Z" fill="#1e0030"/>
  <path d="M249.4,62.5c0,3.7-2.7,6.3-7.4,6.3s-5.6-.8-7.1-1.6c-.2,0-.3-.3-.3-.5v-4.4c0-.1.1-.2.2-.1,1.7,1,4.9,1.9,7.2,1.9s2.1-.6,2.1-1.3-.5-1.3-1.5-1.5l-2.7-.6c-3-.6-5.5-2.1-5.5-6s2.7-6.4,7.8-6.4,4.1.5,5.6,1.1c.2,0,.3.3.3.5v4.3c0,0-.1.2-.2.1-1.9-.8-4.1-1.4-5.9-1.4s-2.4.6-2.4,1.5.4,1.1,1.3,1.3l3.2.7c3.5.8,5.3,2.7,5.3,6h0Z" fill="#1e0030"/>
  <path d="M137,10.2c0-.4.3-.6.6-.6h11.7c6.3,0,10.5,4.2,10.5,10.1s-4.1,10.2-10.5,10.2h-5v8.5c0,.3-.3.6-.6.6h-6.1c-.4,0-.6-.3-.6-.6V10.2h0ZM147.8,23.6c2.4,0,4.1-1.2,4.1-3.9s-1.7-3.8-4.1-3.8h-3.4v7.6h3.4Z" fill="#1e0030"/>
  <path d="M164.9,9.6h6.3c.4,0,.6.3.6.6v28.1c0,.3-.3.6-.6.6h-6.3c-.4,0-.6-.3-.6-.6V10.2c0-.4.3-.6.6-.6Z" fill="#1e0030"/>
  <path d="M184.5,24l-8.5-13.7c-.2-.3,0-.6.4-.6h7.3c.3,0,.6.2.7.4l5,8.5,5-8.5c.1-.2.4-.4.7-.4h7.3c.3,0,.5.4.4.6l-8.5,13.7,9,14.4c.2.3,0,.6-.4.6h-7.4c-.3,0-.6-.2-.7-.4l-5.4-9.1-5.4,9.1c-.1.2-.4.4-.7.4h-7.4c-.3,0-.5-.4-.4-.6l9-14.4h0Z" fill="#1e0030"/>
  <path d="M207.4,9.6h19.2c.4,0,.6.3.6.6v5.3c0,.4-.3.6-.6.6h-12.7v4.9h11.4c.4,0,.6.3.6.6v5.2c0,.4-.3.6-.6.6h-11.4v4.7h12.7c.4,0,.6.3.6.6v5.5c0,.3-.3.6-.6.6h-19.2c-.4,0-.6-.3-.6-.6V10.2c0-.4.3-.6.6-.6h0Z" fill="#1e0030"/>
  <path d="M232.6,9.6h6.1c.4,0,.6.3.6.6v21.6h8.3c.4,0,.6.3.6.6v5.9c0,.3-.3.6-.6.6h-15c-.4,0-.6-.3-.6-.6V10.2c0-.4.3-.6.6-.6h0Z" fill="#1e0030"/>
  <path d="M192.3,58.6c0-6.9,5.3-10.2,10.4-10.2s10.4,3.3,10.4,10.2-5.3,10.2-10.4,10.2-10.4-3.3-10.4-10.2ZM207.9,58.6c0-3.2-2.1-5.3-5.1-5.3s-5.1,2.2-5.1,5.3,2.1,5.3,5.1,5.3,5.1-2.1,5.1-5.3Z" fill="#1e0030"/>
  <path d="M137.4,48.8h12.8c.2,0,.4.2.4.4v3.6c0,.2-.2.4-.4.4h-8.3v3.6h7.5c.2,0,.4.2.4.4v3.6c0,.2-.2.4-.4.4h-7.5v6.6c0,.2-.2.4-.4.4h-4.1c-.2,0-.4-.2-.4-.4v-18.7c0-.2.2-.4.4-.4h0Z" fill="#1e0030"/>
  <path d="M154.2,48.8h4.1c.2,0,.4.2.4.4v14.4h8.5c.2,0,.4.2.4.4v3.9c0,.2-.2.4-.4.4h-12.9c-.2,0-.4-.2-.4-.4v-18.7c0-.2.2-.4.4-.4h0Z" fill="#1e0030"/>
  <path d="M169.2,58.6c0-6.9,5.3-10.2,10.4-10.2s10.4,3.3,10.4,10.2-5.3,10.2-10.4,10.2-10.4-3.3-10.4-10.2h0ZM184.8,58.6c0-3.2-2.1-5.3-5.1-5.3s-5.1,2.2-5.1,5.3,2.1,5.3,5.1,5.3,5.1-2.1,5.1-5.3Z" fill="#1e0030"/>
  <path d="M228.2,61.4l3.6,6.9h-5.3l-2.9-6.2h-2.3v5.8c0,.2-.2.4-.4.4h-4.1c-.2,0-.4-.2-.4-.4v-18.7c0-.2.2-.4.4-.4h8.1c4.2,0,7,2.7,7,6.6s-1.3,5-3.6,6.1h0ZM221.2,57.8h2.6c1.5,0,2.7-.7,2.7-2.4s-1.2-2.4-2.7-2.4h-2.6v4.8Z" fill="#1e0030"/>
  <path d="M249.4,62.5c0,3.7-2.7,6.3-7.4,6.3s-5.6-.8-7.1-1.6c-.2,0-.3-.3-.3-.5v-4.4c0-.1.1-.2.2-.1,1.7,1,4.9,1.9,7.2,1.9s2.1-.6,2.1-1.3-.5-1.3-1.5-1.5l-2.7-.6c-3-.6-5.5-2.1-5.5-6s2.7-6.4,7.8-6.4,4.1.5,5.6,1.1c.2,0,.3.3.3.5v4.3c0,0-.1.2-.2.1-1.9-.8-4.1-1.4-5.9-1.4s-2.4.6-2.4,1.5.4,1.1,1.3,1.3l3.2.7c3.5.8,5.3,2.7,5.3,6h0Z" fill="#1e0030"/>
  <path d="M137,10.2c0-.4.3-.6.6-.6h11.7c6.3,0,10.5,4.2,10.5,10.1s-4.1,10.2-10.5,10.2h-5v8.5c0,.3-.3.6-.6.6h-6.1c-.4,0-.6-.3-.6-.6V10.2h0ZM147.8,23.6c2.4,0,4.1-1.2,4.1-3.9s-1.7-3.8-4.1-3.8h-3.4v7.6h3.4Z" fill="#1e0030"/>
  <path d="M164.9,9.6h6.3c.4,0,.6.3.6.6v28.1c0,.3-.3.6-.6.6h-6.3c-.4,0-.6-.3-.6-.6V10.2c0-.4.3-.6.6-.6Z" fill="#1e0030"/>
  <path d="M184.5,24l-8.5-13.7c-.2-.3,0-.6.4-.6h7.3c.3,0,.6.2.7.4l5,8.5,5-8.5c.1-.2.4-.4.7-.4h7.3c.3,0,.5.4.4.6l-8.5,13.7,9,14.4c.2.3,0,.6-.4.6h-7.4c-.3,0-.6-.2-.7-.4l-5.4-9.1-5.4,9.1c-.1.2-.4.4-.7.4h-7.4c-.3,0-.5-.4-.4-.6l9-14.4h0Z" fill="#1e0030"/>
  <path d="M207.4,9.6h19.2c.4,0,.6.3.6.6v5.3c0,.4-.3.6-.6.6h-12.7v4.9h11.4c.4,0,.6.3.6.6v5.2c0,.4-.3.6-.6.6h-11.4v4.7h12.7c.4,0,.6.3.6.6v5.5c0,.3-.3.6-.6.6h-19.2c-.4,0-.6-.3-.6-.6V10.2c0-.4.3-.6.6-.6h0Z" fill="#1e0030"/>
  <path d="M232.6,9.6h6.1c.4,0,.6.3.6.6v21.6h8.3c.4,0,.6.3.6.6v5.9c0,.3-.3.6-.6.6h-15c-.4,0-.6-.3-.6-.6V10.2c0-.4.3-.6.6-.6h0Z" fill="#1e0030"/>
  <path d="M65.5,24.5l12.9-11c1.1-.9.9-2.3-.4-3.2L62.9.6c-2-1.3-5.4-.5-5.6,1.4l-1.9,17c.6.1,1.2.4,1.8.6,0,0,8.3,4.8,8.3,4.8Z" fill="#1e0030"/>
  <path d="M103.8,37.7l-26.6-1.6c0-.4,0-.9,0-1.5s0-.9,0-1.3l25.7-1.5c3.1-.2,4-2.9,1.6-4.4l-16.7-10.8c-1.4-.9-3.4-.9-4.7-.1l-15.2,9.4,6.6,3.8c1,.6,1.5,1.3,1.5,2.1s-.5,1.5-1.5,2l-17.2,10c-2,1.1-5.1,1.1-7.1,0l-17.3-10c-1-.6-1.5-1.3-1.5-2.1s.5-1.5,1.5-2l6.6-3.8-15.1-9.4c-1.3-.8-3.3-.8-4.7.1L3.1,27.3c-2.4,1.5-1.4,4.2,1.6,4.4l25.5,1.6c0,.4,0,.9,0,1.4s0,1,0,1.4l-26.4,1.5c-3.2.2-5,3-3,4.7l14.8,12.5c1.3,1.1,3.6,1.2,5.2.2l17.8-11,2.5,1.5-15.6,13.4c-1.4,1.2-1.5,3-.1,4.2l16.7,14.1c2.4,2.1,6.7.8,7-2.1l2.7-23.8c1.2.3,2.5.3,3.7,0l2.7,23.8c.3,2.9,4.6,4.2,7,2.1l16.8-14c1.4-1.2,1.3-3-.1-4.2l-15.7-13.5,2.5-1.5,17.9,11.1c1.6,1,3.9,1,5.2-.2l14.9-12.5c2-1.7.1-4.5-3-4.7,0,0,0,0,0,0Z" fill="#1e0030"/>
  <path d="M41.8,24.5l8.2-4.8c.5-.3,1.2-.5,1.8-.7l-1.9-17c-.2-1.8-3.6-2.7-5.6-1.4l-15,9.6c-1.3.9-1.5,2.2-.4,3.1l12.8,11.1h0Z" fill="#1e0030"/>
  <path d="M65.5,24.5l12.9-11c1.1-.9.9-2.3-.4-3.2L62.9.6c-2-1.3-5.4-.5-5.6,1.4l-1.9,17c.6.1,1.2.4,1.8.6,0,0,8.3,4.8,8.3,4.8Z" fill="#1e0030"/>
  <path d="M103.8,37.7l-26.6-1.6c0-.4,0-.9,0-1.5s0-.9,0-1.3l25.7-1.5c3.1-.2,4-2.9,1.6-4.4l-16.7-10.8c-1.4-.9-3.4-.9-4.7-.1l-15.2,9.4,6.6,3.8c1,.6,1.5,1.3,1.5,2.1s-.5,1.5-1.5,2l-17.2,10c-2,1.1-5.1,1.1-7.1,0l-17.3-10c-1-.6-1.5-1.3-1.5-2.1s.5-1.5,1.5-2l6.6-3.8-15.1-9.4c-1.3-.8-3.3-.8-4.7.1L3.1,27.3c-2.4,1.5-1.4,4.2,1.6,4.4l25.5,1.6c0,.4,0,.9,0,1.4s0,1,0,1.4l-26.4,1.5c-3.2.2-5,3-3,4.7l14.8,12.5c1.3,1.1,3.6,1.2,5.2.2l17.8-11,2.5,1.5-15.6,13.4c-1.4,1.2-1.5,3-.1,4.2l16.7,14.1c2.4,2.1,6.7.8,7-2.1l2.7-23.8c1.2.3,2.5.3,3.7,0l2.7,23.8c.3,2.9,4.6,4.2,7,2.1l16.8-14c1.4-1.2,1.3-3-.1-4.2l-15.7-13.5,2.5-1.5,17.9,11.1c1.6,1,3.9,1,5.2-.2l14.9-12.5c2-1.7.1-4.5-3-4.7,0,0,0,0,0,0Z" fill="#1e0030"/>
  <path d="M41.8,24.5l8.2-4.8c.5-.3,1.2-.5,1.8-.7l-1.9-17c-.2-1.8-3.6-2.7-5.6-1.4l-15,9.6c-1.3.9-1.5,2.2-.4,3.1l12.8,11.1h0Z" fill="#1e0030"/>
  <g opacity=".9">
    <image width="2025" height="1683" transform="translate(-7.4 -19.9) scale(0)" xlink:href="Horizontal Pixel Floors logo-1.png" isolation="isolate"/>
  </g>
  <g clip-path="url(#clippath)">
    <g>
      <image width="2400" height="1795" transform="translate(-19.4 -14.6) scale(0)" xlink:href="Horizontal Pixel Floors logo-2.png" isolation="isolate"/>
      <image width="2176" height="1738" transform="translate(-32 -34.9) scale(0)" xlink:href="Horizontal Pixel Floors logo-3.png" isolation="isolate"/>
      <image width="1761" height="1683" transform="translate(15.8 -31.8) scale(0)" xlink:href="Horizontal Pixel Floors logo-4.png" isolation="isolate"/>
    </g>
  </g>
  <g clip-path="url(#clippath-1)">
    <image width="1956" height="1645" transform="translate(-5 -17.6) scale(0)" xlink:href="Horizontal Pixel Floors logo-5.png" isolation="isolate"/>
  </g>
</svg>