<?xml version="1.0" encoding="UTF-8"?>
<svg id="Vrstva_1" xmlns="http://www.w3.org/2000/svg" width="177.4" height="187.9" version="1.1" viewBox="0 0 177.4 187.9">
  <!-- Generator: Adobe Illustrator 30.1.0, SVG Export Plug-In . SVG Version: 2.1.1 Build 136)  -->
  <path d="M26.7,172.2h10.1c.2,0,.3.1.3.3v2.9c0,.2-.2.3-.3.3h-6.6v2.9h5.9c.2,0,.3.1.3.3v2.8c0,.2-.2.3-.3.3h-5.9v5.2c0,.2-.1.3-.3.3h-3.2c-.2,0-.3-.1-.3-.3v-14.7c0-.2.1-.3.3-.3h0Z" fill="#1e0030"/>
  <path d="M45.7,172.2h3.2c.2,0,.3.1.3.3v11.3h6.7c.2,0,.3.1.3.3v3.1c0,.2-.2.3-.3.3h-10.2c-.2,0-.3-.1-.3-.3v-14.7c0-.2.2-.3.3-.3Z" fill="#1e0030"/>
  <path d="M62.7,179.9c0-5.4,4.2-8,8.2-8s8.2,2.6,8.2,8-4.2,8-8.2,8-8.2-2.6-8.2-8ZM74.9,179.9c0-2.5-1.7-4.2-4-4.2s-4,1.7-4,4.2,1.7,4.2,4,4.2,4-1.7,4-4.2Z" fill="#1e0030"/>
  <path d="M86.7,179.9c0-5.4,4.2-8,8.2-8s8.2,2.6,8.2,8-4.2,8-8.2,8-8.2-2.6-8.2-8ZM98.9,179.9c0-2.5-1.7-4.2-4-4.2s-4,1.7-4,4.2,1.7,4.2,4,4.2,4-1.7,4-4.2Z" fill="#1e0030"/>
  <path d="M120.8,182.1l2.8,5.5h-4.2l-2.3-4.9h-1.8v4.6c0,.2-.2.3-.3.3h-3.2c-.2,0-.3-.1-.3-.3v-14.7c0-.2.2-.3.3-.3h6.3c3.3,0,5.5,2.2,5.5,5.2s-1.1,3.9-2.8,4.8h0ZM115.4,179.3h2c1.2,0,2.1-.6,2.1-1.9s-.9-1.9-2.1-1.9h-2v3.8Z" fill="#1e0030"/>
  <path d="M143.4,183c0,2.9-2.2,5-5.8,5s-4.4-.6-5.6-1.2c-.1,0-.2-.2-.2-.4v-3.4c0,0,0-.1.2,0,1.4.8,3.9,1.5,5.7,1.5s1.7-.5,1.7-1.1-.4-1-1.2-1.2l-2.1-.5c-2.3-.5-4.3-1.7-4.3-4.7s2.1-5,6.1-5,3.3.4,4.4.9c.2,0,.3.2.3.4v3.4c0,0,0,.1-.1.1-1.5-.7-3.2-1.1-4.7-1.1s-1.9.5-1.9,1.1.4.9,1,1l2.5.6c2.7.6,4.2,2.1,4.2,4.8h0Z" fill="#1e0030"/>
  <path d="M0,110.4c0-.6.4-1,1-1h18.6c10.1,0,16.7,6.8,16.7,16.1s-6.6,16.2-16.7,16.2h-7.9v13.6c0,.6-.4,1-1,1H1c-.6,0-1-.4-1-1v-44.9h0ZM17.2,131.7c3.8,0,6.5-1.9,6.5-6.2s-2.8-6-6.5-6h-5.5v12.2h5.5Z" fill="#1e0030"/>
  <path d="M44.6,109.4h10.1c.5,0,1,.4,1,1v44.9c0,.6-.5,1-1,1h-10.1c-.5,0-1-.4-1-1v-44.9c0-.6.5-1,1-1Z" fill="#1e0030"/>
  <path d="M75.7,132.4l-13.5-21.9c-.3-.4,0-1,.6-1h11.6c.5,0,.9.2,1.2.7l8,13.6,8-13.6c.2-.4.7-.7,1.2-.7h11.6c.5,0,.8.6.6,1l-13.5,21.9,14.3,23c.3.4,0,1-.6,1h-11.7c-.5,0-.9-.2-1.1-.6l-8.7-14.5-8.7,14.5c-.2.4-.7.6-1.1.6h-11.7c-.5,0-.8-.6-.6-1l14.3-23h0Z" fill="#1e0030"/>
  <path d="M112.3,109.4h30.7c.6,0,1,.4,1,1v8.4c0,.6-.4,1-1,1h-20.3v7.8h18.2c.6,0,1,.4,1,1v8.4c0,.6-.4,1-1,1h-18.2v7.6h20.3c.6,0,1,.4,1,1v8.7c0,.6-.4,1-1,1h-30.7c-.6,0-1-.4-1-1v-44.9c0-.6.4-1,1-1Z" fill="#1e0030"/>
  <path d="M152.4,109.4h9.7c.6,0,1,.4,1,1v34.5h13.2c.6,0,1,.4,1,1v9.4c0,.6-.4,1-1,1h-24c-.6,0-1-.4-1-1v-44.9c0-.6.4-1,1-1h0Z" fill="#1e0030"/>
  <path d="M95.3,24.5l12.9-11c1.1-.9.9-2.3-.4-3.2L92.7.6c-2-1.3-5.4-.5-5.6,1.4l-1.9,17c.6.1,1.2.4,1.8.6l8.3,4.8h0Z" fill="#1e0030"/>
  <path d="M133.5,37.7l-26.6-1.6c0-.4,0-.9,0-1.5s0-.9,0-1.3l25.7-1.5c3.1-.2,4-2.9,1.6-4.4l-16.7-10.8c-1.4-.9-3.4-.9-4.7-.1l-15.2,9.4,6.6,3.8c1,.6,1.5,1.3,1.5,2.1s-.5,1.5-1.5,2l-17.2,10c-1.9,1.1-5.1,1.1-7.1,0l-17.3-10c-1-.6-1.5-1.3-1.5-2.1s.5-1.5,1.5-2l6.6-3.8-15.1-9.4c-1.3-.8-3.3-.8-4.7.1l-16.6,10.7c-2.4,1.5-1.4,4.2,1.6,4.4l25.5,1.6c0,.4,0,.9,0,1.4s0,1,0,1.4l-26.4,1.5c-3.1.2-5,3-3,4.7l14.8,12.5c1.3,1.1,3.6,1.2,5.2.2l17.8-11,2.5,1.5-15.6,13.4c-1.4,1.2-1.5,3,0,4.2l16.7,14.1c2.4,2.1,6.7.8,7-2.1l2.7-23.8c1.2.3,2.5.3,3.7,0l2.7,23.8c.3,2.9,4.6,4.2,7,2.1l16.8-14c1.4-1.2,1.3-3-.1-4.2l-15.7-13.5,2.5-1.5,17.9,11.1c1.6,1,3.9,1,5.2-.2l15-12.5c2-1.7.1-4.5-3-4.7h0Z" fill="#1e0030"/>
  <path d="M71.6,24.5l8.2-4.8c.5-.3,1.2-.5,1.8-.7l-1.9-17c-.2-1.8-3.6-2.7-5.6-1.4l-15,9.6c-1.3.9-1.5,2.2-.4,3.1l12.8,11.1h0Z" fill="#1e0030"/>
</svg>