<?xml version="1.0" encoding="UTF-8"?><svg id="Vrstva_1" xmlns="http://www.w3.org/2000/svg" viewBox="0 0 283.93 79.03"><defs><style>.cls-1{fill:#0f172a;}</style></defs><path class="cls-1" d="M207.64,65.4c0-9.23,7.1-13.64,13.94-13.64s13.94,4.37,13.94,13.64-7.1,13.64-13.94,13.64-13.94-4.41-13.94-13.64ZM228.41,65.4c0-4.22-2.84-7.1-6.84-7.1s-6.84,2.88-6.84,7.1,2.88,7.1,6.84,7.1,6.84-2.84,6.84-7.1ZM134.35,52.32h17.11c.31,0,.56.25.56.56v4.86c0,.31-.25.56-.56.56h-11.13v4.86h9.98c.31,0,.56.25.56.56v4.78c0,.31-.25.56-.56.56h-9.98v8.85c0,.31-.25.56-.56.56h-5.42c-.31,0-.56-.25-.56-.56v-25.03c0-.31.25-.56.56-.56ZM156.72,52.32h5.42c.31,0,.56.25.56.56v19.24h11.32c.31,0,.56.25.56.56v5.23c0,.31-.25.56-.56.56h-17.3c-.31,0-.56-.25-.56-.56v-25.03c0-.31.25-.56.56-.56ZM176.82,65.4c0-9.23,7.1-13.64,13.94-13.64s13.94,4.37,13.94,13.64-7.1,13.64-13.94,13.64-13.94-4.41-13.94-13.64ZM197.59,65.4c0-4.22-2.84-7.1-6.84-7.1s-6.84,2.88-6.84,7.1,2.88,7.1,6.84,7.1,6.84-2.84,6.84-7.1ZM255.54,69.21l4.78,9.26h-7.14l-3.85-8.33h-3.06v7.77c0,.31-.25.56-.56.56h-5.42c-.31,0-.56-.25-.56-.56v-25.03c0-.31.25-.56.56-.56h10.76c5.64,0,9.3,3.66,9.3,8.78,0,3.7-1.79,6.65-4.82,8.11ZM246.28,64.35h3.44c2.02,0,3.62-.93,3.62-3.25s-1.61-3.18-3.62-3.18h-3.44v6.43ZM283.93,70.59c0,4.93-3.66,8.44-9.86,8.44-4.08,0-7.51-1.11-9.53-2.08-.26-.12-.41-.38-.41-.67v-5.82c0-.14.15-.23.27-.16,2.28,1.35,6.54,2.56,9.67,2.56,1.98,0,2.84-.86,2.84-1.79s-.64-1.68-2.06-1.98l-3.55-.78c-3.96-.86-7.36-2.84-7.36-7.99s3.62-8.56,10.35-8.56c2.8,0,5.54.67,7.47,1.45.28.11.45.39.45.69v5.72c0,.13-.13.22-.26.17-2.59-1.13-5.5-1.9-7.93-1.9-2.09,0-3.14.86-3.14,1.94,0,.82.6,1.49,1.72,1.76l4.26.93c4.63,1.01,7.06,3.55,7.06,8.07ZM133.79.84c0-.46.37-.84.84-.84h15.6c8.47,0,13.97,5.67,13.97,13.46s-5.5,13.57-13.97,13.57h-6.62v11.39c0,.46-.37.84-.84.84h-8.14c-.46,0-.84-.37-.84-.84V.84ZM148.21,18.62c3.14,0,5.44-1.57,5.44-5.16s-2.3-5.05-5.44-5.05h-4.6v10.21h4.6ZM171.09,0h8.42c.46,0,.84.37.84.84v37.59c0,.46-.37.84-.84.84h-8.42c-.46,0-.84-.37-.84-.84V.84c0-.46.37-.84.84-.84ZM197.16,19.19L185.85.84c-.23-.37.04-.84.47-.84h9.7c.39,0,.76.21.96.55l6.69,11.34,6.69-11.34c.2-.34.56-.55.96-.55h9.7c.43,0,.7.47.47.84l-11.31,18.34,11.98,19.23c.23.37-.04.84-.47.84h-9.82c-.39,0-.75-.21-.96-.54l-7.25-12.13-7.25,12.13c-.2.34-.56.54-.96.54h-9.81c-.43,0-.7-.48-.47-.84l11.98-19.23ZM227.76,0h25.7c.46,0,.84.37.84.84v7.02c0,.46-.37.84-.84.84h-17v6.56h15.26c.46,0,.84.37.84.84v7.02c0,.46-.37.84-.84.84h-15.26v6.34h17c.46,0,.84.37.84.84v7.3c0,.46-.37.84-.84.84h-25.7c-.46,0-.84-.37-.84-.84V.84c0-.46.37-.84.84-.84ZM261.39,0h8.14c.46,0,.84.37.84.84v28.89h11.08c.46,0,.84.37.84.84v7.86c0,.46-.37.84-.84.84h-20.06c-.46,0-.84-.37-.84-.84V.84c0-.46.37-.84.84-.84ZM65.51,24.5l12.88-11.04c1.08-.93.89-2.3-.43-3.15L62.91.63c-2.02-1.3-5.39-.48-5.6,1.36l-1.9,17.04c.64.14,1.24.36,1.75.65l8.34,4.82ZM103.75,37.71l-26.57-1.62c.06-.43.09-.93.09-1.47,0-.48-.03-.93-.07-1.32l25.69-1.49c3.07-.18,4.02-2.86,1.61-4.42l-16.71-10.75c-1.37-.88-3.42-.94-4.72-.14l-15.18,9.37,6.61,3.81c.98.57,1.48,1.31,1.48,2.06s-.49,1.48-1.46,2.04l-17.21,10c-1.95,1.13-5.12,1.13-7.08,0l-17.33-10c-.99-.57-1.48-1.31-1.48-2.06s.49-1.48,1.46-2.04l6.61-3.84-15.14-9.39c-1.3-.8-3.33-.75-4.69.13L3.08,27.26c-2.39,1.54-1.44,4.22,1.59,4.4l25.52,1.56c-.05.42-.08.89-.08,1.4s.03.98.08,1.4l-26.37,1.53c-3.15.18-4.99,3-3.01,4.67l14.83,12.53c1.31,1.11,3.59,1.18,5.22.18l17.77-10.97,2.51,1.45-15.63,13.4c-1.41,1.21-1.47,3.03-.1,4.19l16.72,14.12c2.43,2.05,6.71.78,7.03-2.07l2.66-23.82c1.19.27,2.51.28,3.71.03l2.68,23.82c.32,2.86,4.61,4.16,7.04,2.13l16.77-14.04c1.37-1.15,1.32-2.97-.11-4.2l-15.7-13.5,2.5-1.45,17.87,11.09c1.64,1.02,3.93.95,5.25-.15l14.95-12.51c2-1.67.14-4.51-3.04-4.71ZM41.84,24.47l8.24-4.79c.53-.31,1.17-.53,1.83-.67l-1.91-17.02c-.21-1.84-3.58-2.66-5.59-1.36l-14.99,9.65c-1.32.85-1.51,2.21-.43,3.14l12.84,11.05Z"/></svg>