<?xml version="1.0" encoding="UTF-8"?><svg id="Vrstva_1" xmlns="http://www.w3.org/2000/svg" viewBox="0 0 177.38 187.94"><defs><style>.cls-1{fill:#0f172a;}</style></defs><path class="cls-1" d="M26.69,172.21h10.08c.18,0,.33.15.33.33v2.86c0,.18-.15.33-.33.33h-6.56v2.86h5.88c.18,0,.33.15.33.33v2.82c0,.18-.15.33-.33.33h-5.88v5.21c0,.18-.15.33-.33.33h-3.19c-.18,0-.33-.15-.33-.33v-14.74c0-.18.15-.33.33-.33Z"/><path class="cls-1" d="M45.74,172.21h3.19c.18,0,.33.15.33.33v11.33h6.67c.18,0,.33.15.33.33v3.08c0,.18-.15.33-.33.33h-10.19c-.18,0-.33-.15-.33-.33v-14.74c0-.18.15-.33.33-.33Z"/><path class="cls-1" d="M62.66,179.91c0-5.43,4.18-8.03,8.21-8.03s8.21,2.57,8.21,8.03-4.18,8.03-8.21,8.03-8.21-2.6-8.21-8.03ZM74.89,179.91c0-2.49-1.67-4.18-4.03-4.18s-4.03,1.69-4.03,4.18,1.69,4.18,4.03,4.18,4.03-1.67,4.03-4.18Z"/><path class="cls-1" d="M86.7,179.91c0-5.43,4.18-8.03,8.21-8.03s8.21,2.57,8.21,8.03-4.18,8.03-8.21,8.03-8.21-2.6-8.21-8.03ZM98.94,179.91c0-2.49-1.67-4.18-4.03-4.18s-4.03,1.69-4.03,4.18,1.69,4.18,4.03,4.18,4.03-1.67,4.03-4.18Z"/><path class="cls-1" d="M120.81,182.15l2.82,5.46h-4.2l-2.27-4.91h-1.8v4.58c0,.18-.15.33-.33.33h-3.19c-.18,0-.33-.15-.33-.33v-14.74c0-.18.15-.33.33-.33h6.34c3.32,0,5.48,2.16,5.48,5.17,0,2.18-1.06,3.92-2.84,4.77ZM115.36,179.29h2.02c1.19,0,2.13-.55,2.13-1.91s-.95-1.87-2.13-1.87h-2.02v3.78Z"/><path class="cls-1" d="M143.44,182.97c0,2.9-2.16,4.97-5.81,4.97-2.4,0-4.42-.65-5.61-1.22-.15-.07-.24-.23-.24-.39v-3.43c0-.09.09-.14.16-.09,1.35.8,3.85,1.51,5.69,1.51,1.17,0,1.67-.51,1.67-1.06s-.37-.99-1.21-1.17l-2.09-.46c-2.33-.51-4.33-1.67-4.33-4.71s2.13-5.04,6.09-5.04c1.65,0,3.26.4,4.4.86.17.07.27.23.27.41v3.37c0,.08-.08.13-.15.1-1.53-.67-3.24-1.12-4.67-1.12-1.23,0-1.85.51-1.85,1.14,0,.48.35.88,1.01,1.03l2.51.55c2.73.59,4.16,2.09,4.16,4.75Z"/><path class="cls-1" d="M0,110.44c0-.55.45-1,1-1h18.63c10.12,0,16.68,6.77,16.68,16.08s-6.57,16.21-16.68,16.21h-7.91v13.6c0,.55-.45,1-1,1H1c-.55,0-1-.45-1-1v-44.9ZM17.22,131.69c3.75,0,6.5-1.88,6.5-6.16s-2.75-6.03-6.5-6.03h-5.49v12.19h5.49Z"/><path class="cls-1" d="M44.56,109.44h10.06c.55,0,1,.45,1,1v44.9c0,.55-.45,1-1,1h-10.06c-.55,0-1-.45-1-1v-44.9c0-.55.45-1,1-1Z"/><path class="cls-1" d="M75.7,132.36l-13.52-21.91c-.27-.44.05-1.01.56-1.01h11.59c.47,0,.91.25,1.15.65l7.99,13.55,7.99-13.55c.24-.41.67-.65,1.15-.65h11.59c.52,0,.83.57.56,1.01l-13.52,21.91,14.31,22.97c.27.44-.04,1.01-.56,1.01h-11.73c-.47,0-.9-.25-1.14-.65l-8.66-14.49-8.66,14.49c-.24.4-.67.65-1.14.65h-11.72c-.52,0-.83-.57-.56-1.01l14.31-22.97Z"/><path class="cls-1" d="M112.26,109.44h30.7c.55,0,1,.45,1,1v8.39c0,.55-.45,1-1,1h-20.31v7.84h18.23c.55,0,1,.45,1,1v8.38c0,.55-.45,1-1,1h-18.23v7.57h20.31c.55,0,1,.45,1,1v8.72c0,.55-.45,1-1,1h-30.7c-.55,0-1-.45-1-1v-44.9c0-.55.45-1,1-1Z"/><path class="cls-1" d="M152.42,109.44h9.72c.55,0,1,.45,1,1v34.51h13.24c.55,0,1,.45,1,1v9.39c0,.55-.45,1-1,1h-23.96c-.55,0-1-.45-1-1v-44.9c0-.55.45-1,1-1Z"/><path class="cls-1" d="M95.3,24.5l12.88-11.04c1.08-.93.89-2.3-.43-3.15L92.7.63c-2.02-1.3-5.39-.48-5.6,1.36l-1.9,17.04c.64.14,1.24.36,1.75.65l8.34,4.82Z"/><path class="cls-1" d="M133.54,37.71l-26.57-1.62c.06-.43.09-.93.09-1.47,0-.48-.03-.93-.07-1.32l25.69-1.49c3.07-.18,4.02-2.86,1.61-4.42l-16.71-10.75c-1.37-.88-3.42-.94-4.72-.14l-15.18,9.37,6.61,3.81c.98.57,1.48,1.31,1.48,2.06s-.49,1.48-1.46,2.04l-17.21,10c-1.95,1.13-5.12,1.13-7.08,0l-17.33-10c-.99-.57-1.48-1.31-1.48-2.06s.49-1.48,1.46-2.04l6.61-3.84-15.14-9.39c-1.3-.8-3.33-.75-4.69.13l-16.57,10.68c-2.39,1.54-1.44,4.22,1.59,4.4l25.52,1.56c-.05.42-.08.89-.08,1.4s.03.98.08,1.4l-26.37,1.53c-3.15.18-4.99,3-3.01,4.67l14.83,12.53c1.31,1.11,3.59,1.18,5.22.18l17.77-10.97,2.51,1.45-15.63,13.4c-1.41,1.21-1.47,3.03-.1,4.19l16.72,14.12c2.43,2.05,6.71.78,7.03-2.07l2.66-23.82c1.19.27,2.51.28,3.71.03l2.68,23.82c.32,2.86,4.61,4.16,7.04,2.13l16.77-14.04c1.37-1.15,1.32-2.97-.11-4.2l-15.7-13.5,2.5-1.45,17.87,11.09c1.64,1.02,3.93.95,5.25-.15l14.95-12.51c2-1.67.14-4.51-3.04-4.71Z"/><path class="cls-1" d="M71.63,24.47l8.24-4.79c.53-.31,1.17-.53,1.83-.67l-1.91-17.02c-.21-1.84-3.58-2.66-5.59-1.36l-14.99,9.65c-1.32.85-1.51,2.21-.43,3.14l12.84,11.05Z"/></svg>