<?xml version="1.0" encoding="UTF-8"?>
<svg id="Vrstva_1" xmlns="http://www.w3.org/2000/svg" width="283.9" height="79" version="1.1" viewBox="0 0 283.9 79">
  <!-- Generator: Adobe Illustrator 30.1.0, SVG Export Plug-In . SVG Version: 2.1.1 Build 136)  -->
  <path d="M207.6,65.4c0-9.2,7.1-13.6,13.9-13.6s13.9,4.4,13.9,13.6-7.1,13.6-13.9,13.6-13.9-4.4-13.9-13.6ZM228.4,65.4c0-4.2-2.8-7.1-6.8-7.1s-6.8,2.9-6.8,7.1,2.9,7.1,6.8,7.1,6.8-2.8,6.8-7.1ZM134.4,52.3h17.1c.3,0,.6.2.6.6v4.9c0,.3-.2.6-.6.6h-11.1v4.9h10c.3,0,.6.2.6.6v4.8c0,.3-.2.6-.6.6h-10v8.8c0,.3-.2.6-.6.6h-5.4c-.3,0-.6-.2-.6-.6v-25c0-.3.2-.6.6-.6ZM156.7,52.3h5.4c.3,0,.6.2.6.6v19.2h11.3c.3,0,.6.2.6.6v5.2c0,.3-.2.6-.6.6h-17.3c-.3,0-.6-.2-.6-.6v-25c0-.3.2-.6.6-.6h0ZM176.8,65.4c0-9.2,7.1-13.6,13.9-13.6s13.9,4.4,13.9,13.6-7.1,13.6-13.9,13.6-13.9-4.4-13.9-13.6ZM197.6,65.4c0-4.2-2.8-7.1-6.8-7.1s-6.8,2.9-6.8,7.1,2.9,7.1,6.8,7.1,6.8-2.8,6.8-7.1ZM255.5,69.2l4.8,9.3h-7.1l-3.9-8.3h-3.1v7.8c0,.3-.2.6-.6.6h-5.4c-.3,0-.6-.2-.6-.6v-25c0-.3.2-.6.6-.6h10.8c5.6,0,9.3,3.7,9.3,8.8s-1.8,6.6-4.8,8.1h0ZM246.3,64.3h3.4c2,0,3.6-.9,3.6-3.2s-1.6-3.2-3.6-3.2h-3.4v6.4ZM283.9,70.6c0,4.9-3.7,8.4-9.9,8.4s-7.5-1.1-9.5-2.1c-.3-.1-.4-.4-.4-.7v-5.8c0-.1.1-.2.3-.2,2.3,1.3,6.5,2.6,9.7,2.6s2.8-.9,2.8-1.8-.6-1.7-2.1-2l-3.5-.8c-4-.9-7.4-2.8-7.4-8s3.6-8.6,10.4-8.6,5.5.7,7.5,1.5c.3.1.5.4.5.7v5.7c0,.1-.1.2-.3.2-2.6-1.1-5.5-1.9-7.9-1.9s-3.1.9-3.1,1.9.6,1.5,1.7,1.8l4.3.9c4.6,1,7.1,3.5,7.1,8.1h0ZM133.8.8c0-.5.4-.8.8-.8h15.6c8.5,0,14,5.7,14,13.5s-5.5,13.6-14,13.6h-6.6v11.4c0,.5-.4.8-.8.8h-8.1c-.5,0-.8-.4-.8-.8V.8h0ZM148.2,18.6c3.1,0,5.4-1.6,5.4-5.2s-2.3-5.1-5.4-5.1h-4.6v10.2h4.6ZM171.1,0h8.4c.5,0,.8.4.8.8v37.6c0,.5-.4.8-.8.8h-8.4c-.5,0-.8-.4-.8-.8V.8c0-.5.4-.8.8-.8ZM197.2,19.2L185.9.8c-.2-.4,0-.8.5-.8h9.7c.4,0,.8.2,1,.6l6.7,11.3,6.7-11.3C210.6.2,210.9,0,211.3,0h9.7c.4,0,.7.5.5.8l-11.3,18.3,12,19.2c.2.4,0,.8-.5.8h-9.8c-.4,0-.8-.2-1-.5l-7.2-12.1-7.2,12.1c-.2.3-.6.5-1,.5h-9.8c-.4,0-.7-.5-.5-.8l12-19.2h0ZM227.8,0h25.7c.5,0,.8.4.8.8v7c0,.5-.4.8-.8.8h-17v6.6h15.3c.5,0,.8.4.8.8v7c0,.5-.4.8-.8.8h-15.3v6.3h17c.5,0,.8.4.8.8v7.3c0,.5-.4.8-.8.8h-25.7c-.5,0-.8-.4-.8-.8V.8c0-.5.4-.8.8-.8ZM261.4,0h8.1c.5,0,.8.4.8.8v28.9h11.1c.5,0,.8.4.8.8v7.9c0,.5-.4.8-.8.8h-20.1c-.5,0-.8-.4-.8-.8V.8c0-.5.4-.8.8-.8ZM65.5,24.5l12.9-11c1.1-.9.9-2.3-.4-3.2L62.9.6c-2-1.3-5.4-.5-5.6,1.4l-1.9,17c.6.1,1.2.4,1.8.6l8.3,4.8h0ZM103.8,37.7l-26.6-1.6c0-.4,0-.9,0-1.5s0-.9,0-1.3l25.7-1.5c3.1-.2,4-2.9,1.6-4.4l-16.7-10.8c-1.4-.9-3.4-.9-4.7-.1l-15.2,9.4,6.6,3.8c1,.6,1.5,1.3,1.5,2.1s-.5,1.5-1.5,2l-17.2,10c-2,1.1-5.1,1.1-7.1,0l-17.3-10c-1-.6-1.5-1.3-1.5-2.1s.5-1.5,1.5-2l6.6-3.8-15.1-9.4c-1.3-.8-3.3-.8-4.7.1L3.1,27.3c-2.4,1.5-1.4,4.2,1.6,4.4l25.5,1.6c0,.4,0,.9,0,1.4s0,1,0,1.4l-26.4,1.5c-3.2.2-5,3-3,4.7l14.8,12.5c1.3,1.1,3.6,1.2,5.2.2l17.8-11,2.5,1.5-15.6,13.4c-1.4,1.2-1.5,3-.1,4.2l16.7,14.1c2.4,2.1,6.7.8,7-2.1l2.7-23.8c1.2.3,2.5.3,3.7,0l2.7,23.8c.3,2.9,4.6,4.2,7,2.1l16.8-14c1.4-1.2,1.3-3-.1-4.2l-15.7-13.5,2.5-1.5,17.9,11.1c1.6,1,3.9,1,5.2-.2l14.9-12.5c2-1.7.1-4.5-3-4.7h0ZM41.8,24.5l8.2-4.8c.5-.3,1.2-.5,1.8-.7l-1.9-17c-.2-1.8-3.6-2.7-5.6-1.4l-15,9.6c-1.3.9-1.5,2.2-.4,3.1l12.8,11.1h0Z" fill="#1e0030"/>
</svg>