<?xml version="1.0" encoding="UTF-8"?>
<svg id="Vrstva_1" xmlns="http://www.w3.org/2000/svg" width="186.6" height="228.6" xmlns:xlink="http://www.w3.org/1999/xlink" version="1.1" viewBox="0 0 186.6 228.6">
  <!-- Generator: Adobe Illustrator 30.1.0, SVG Export Plug-In . SVG Version: 2.1.1 Build 136)  -->
  <defs>
    <clipPath id="clippath">
      <path d="M115,72.4c0,.7-.5,1.5-1.5,2l-17.2,10c-1.9,1.1-5.1,1.1-7.1,0l-17.3-10c-1-.6-1.5-1.3-1.5-2.1s.5-1.5,1.5-2l17.2-10c1.9-1.1,5.1-1.1,7.1,0l17.3,10c1,.6,1.5,1.3,1.5,2.1Z" fill="none"/>
    </clipPath>
    <clipPath id="clippath-1">
      <path d="M115,72.4c0,.7-.5,1.5-1.5,2l-17.2,10c-1.9,1.1-5.1,1.1-7.1,0l-17.3-10c-1-.6-1.5-1.3-1.5-2.1s.5-1.5,1.5-2l17.2-10c1.9-1.1,5.1-1.1,7.1,0l17.3,10c1,.6,1.5,1.3,1.5,2.1Z" fill="none"/>
    </clipPath>
  </defs>
  <path d="M104.5,65.1l12.9-11c1.1-.9.9-2.3-.4-3.2l-15-9.7c-2-1.3-5.4-.5-5.6,1.4l-1.9,17c.6.1,1.2.4,1.8.7l8.3,4.8Z" fill="#1e0030"/>
  <path d="M142.8,78.3l-26.6-1.6c0-.4,0-.9,0-1.5s0-.9,0-1.3l25.7-1.5c3.1-.2,4-2.9,1.6-4.4l-16.7-10.8c-1.4-.9-3.4-.9-4.7-.1l-15.2,9.4,6.6,3.8c1,.6,1.5,1.3,1.5,2.1s-.5,1.5-1.5,2l-17.2,10c-1.9,1.1-5.1,1.1-7.1,0l-17.3-10c-1-.6-1.5-1.3-1.5-2.1s.5-1.5,1.5-2l6.6-3.8-15.1-9.4c-1.3-.8-3.3-.8-4.7.1l-16.6,10.7c-2.4,1.5-1.4,4.2,1.6,4.4l25.5,1.6c0,.4,0,.9,0,1.4s0,1,0,1.4l-26.4,1.5c-3.2.2-5,3-3,4.7l14.8,12.5c1.3,1.1,3.6,1.2,5.2.2l17.8-11,2.5,1.4-15.6,13.4c-1.4,1.2-1.5,3,0,4.2l16.7,14.1c2.4,2.1,6.7.8,7-2.1l2.7-23.8c1.2.3,2.5.3,3.7,0l2.7,23.8c.3,2.9,4.6,4.2,7,2.1l16.8-14c1.4-1.2,1.3-3-.1-4.2l-15.7-13.5,2.5-1.4,17.9,11.1c1.6,1,3.9.9,5.2-.2l14.9-12.5c2-1.7.1-4.5-3-4.7h0Z" fill="#1e0030"/>
  <path d="M80.8,65.1l8.2-4.8c.5-.3,1.2-.5,1.8-.7l-1.9-17c-.2-1.8-3.6-2.7-5.6-1.4l-15,9.6c-1.3.8-1.5,2.2-.4,3.1l12.8,11.1h0Z" fill="#1e0030"/>
  <path d="M104.5,65.1l12.9-11c1.1-.9.9-2.3-.4-3.2l-15-9.7c-2-1.3-5.4-.5-5.6,1.4l-1.9,17c.6.1,1.2.4,1.8.7l8.3,4.8Z" fill="#1e0030"/>
  <path d="M142.8,78.3l-26.6-1.6c0-.4,0-.9,0-1.5s0-.9,0-1.3l25.7-1.5c3.1-.2,4-2.9,1.6-4.4l-16.7-10.8c-1.4-.9-3.4-.9-4.7-.1l-15.2,9.4,6.6,3.8c1,.6,1.5,1.3,1.5,2.1s-.5,1.5-1.5,2l-17.2,10c-1.9,1.1-5.1,1.1-7.1,0l-17.3-10c-1-.6-1.5-1.3-1.5-2.1s.5-1.5,1.5-2l6.6-3.8-15.1-9.4c-1.3-.8-3.3-.8-4.7.1l-16.6,10.7c-2.4,1.5-1.4,4.2,1.6,4.4l25.5,1.6c0,.4,0,.9,0,1.4s0,1,0,1.4l-26.4,1.5c-3.2.2-5,3-3,4.7l14.8,12.5c1.3,1.1,3.6,1.2,5.2.2l17.8-11,2.5,1.4-15.6,13.4c-1.4,1.2-1.5,3,0,4.2l16.7,14.1c2.4,2.1,6.7.8,7-2.1l2.7-23.8c1.2.3,2.5.3,3.7,0l2.7,23.8c.3,2.9,4.6,4.2,7,2.1l16.8-14c1.4-1.2,1.3-3-.1-4.2l-15.7-13.5,2.5-1.4,17.9,11.1c1.6,1,3.9.9,5.2-.2l14.9-12.5c2-1.7.1-4.5-3-4.7h0Z" fill="#1e0030"/>
  <path d="M80.8,65.1l8.2-4.8c.5-.3,1.2-.5,1.8-.7l-1.9-17c-.2-1.8-3.6-2.7-5.6-1.4l-15,9.6c-1.3.8-1.5,2.2-.4,3.1l12.8,11.1h0Z" fill="#1e0030"/>
  <g opacity=".9">
    <image width="2046" height="1684" transform="translate(31.3 20.9) scale(0)" xlink:href="Primary Pixel Floors logo-1.png" isolation="isolate"/>
  </g>
  <path d="M35.9,212.8h10.1c.2,0,.3.1.3.3v2.9c0,.2-.2.3-.3.3h-6.6v2.9h5.9c.2,0,.3.1.3.3v2.8c0,.2-.2.3-.3.3h-5.9v5.2c0,.2-.2.3-.3.3h-3.2c-.2,0-.3-.1-.3-.3v-14.7c0-.2.2-.3.3-.3h0Z" fill="#1e0030"/>
  <path d="M55,212.8h3.2c.2,0,.3.1.3.3v11.3h6.7c.2,0,.3.1.3.3v3.1c0,.2-.2.3-.3.3h-10.2c-.2,0-.3-.1-.3-.3v-14.7c0-.2.2-.3.3-.3Z" fill="#1e0030"/>
  <path d="M71.9,220.5c0-5.4,4.2-8,8.2-8s8.2,2.6,8.2,8-4.2,8-8.2,8-8.2-2.6-8.2-8ZM84.1,220.5c0-2.5-1.7-4.2-4-4.2s-4,1.7-4,4.2,1.7,4.2,4,4.2,4-1.7,4-4.2Z" fill="#1e0030"/>
  <path d="M95.9,220.5c0-5.4,4.2-8,8.2-8s8.2,2.6,8.2,8-4.2,8-8.2,8-8.2-2.6-8.2-8ZM108.2,220.5c0-2.5-1.7-4.2-4-4.2s-4,1.7-4,4.2,1.7,4.2,4,4.2,4-1.7,4-4.2Z" fill="#1e0030"/>
  <path d="M130,222.8l2.8,5.5h-4.2l-2.3-4.9h-1.8v4.6c0,.2-.2.3-.3.3h-3.2c-.2,0-.3-.1-.3-.3v-14.7c0-.2.2-.3.3-.3h6.3c3.3,0,5.5,2.2,5.5,5.2s-1.1,3.9-2.8,4.8h0ZM124.6,219.9h2c1.2,0,2.1-.6,2.1-1.9s-.9-1.9-2.1-1.9h-2v3.8Z" fill="#1e0030"/>
  <path d="M152.7,223.6c0,2.9-2.2,5-5.8,5s-4.4-.6-5.6-1.2c-.1,0-.2-.2-.2-.4v-3.4c0,0,0-.1.2,0,1.4.8,3.9,1.5,5.7,1.5s1.7-.5,1.7-1.1-.4-1-1.2-1.2l-2.1-.5c-2.3-.5-4.3-1.7-4.3-4.7s2.1-5,6.1-5,3.3.4,4.4.9c.2,0,.3.2.3.4v3.4c0,0,0,.1-.1.1-1.5-.7-3.2-1.1-4.7-1.1s-1.9.5-1.9,1.1.4.9,1,1l2.5.6c2.7.6,4.2,2.1,4.2,4.8h0Z" fill="#1e0030"/>
  <path d="M9.2,151.1c0-.6.4-1,1-1h18.6c10.1,0,16.7,6.8,16.7,16.1s-6.6,16.2-16.7,16.2h-7.9v13.6c0,.6-.5,1-1,1h-9.7c-.6,0-1-.4-1-1v-44.9h0ZM26.5,172.3c3.8,0,6.5-1.9,6.5-6.2s-2.8-6-6.5-6h-5.5v12.2h5.5Z" fill="#1e0030"/>
  <path d="M53.8,150.1h10.1c.5,0,1,.4,1,1v44.9c0,.6-.4,1-1,1h-10.1c-.5,0-1-.4-1-1v-44.9c0-.6.5-1,1-1Z" fill="#1e0030"/>
  <path d="M84.9,173l-13.5-21.9c-.3-.4,0-1,.6-1h11.6c.5,0,.9.2,1.2.6l8,13.6,8-13.6c.2-.4.7-.6,1.2-.6h11.6c.5,0,.8.6.6,1l-13.5,21.9,14.3,23c.3.4,0,1-.6,1h-11.7c-.5,0-.9-.2-1.1-.6l-8.7-14.5-8.7,14.5c-.2.4-.7.6-1.1.6h-11.7c-.5,0-.8-.6-.6-1l14.3-23h0Z" fill="#1e0030"/>
  <path d="M121.5,150.1h30.7c.6,0,1,.4,1,1v8.4c0,.6-.4,1-1,1h-20.3v7.8h18.2c.6,0,1,.4,1,1v8.4c0,.6-.4,1-1,1h-18.2v7.6h20.3c.6,0,1,.4,1,1v8.7c0,.6-.4,1-1,1h-30.7c-.6,0-1-.4-1-1v-44.9c0-.6.4-1,1-1Z" fill="#1e0030"/>
  <path d="M161.6,150.1h9.7c.6,0,1,.4,1,1v34.5h13.2c.6,0,1,.4,1,1v9.4c0,.6-.4,1-1,1h-24c-.6,0-1-.4-1-1v-44.9c0-.6.4-1,1-1Z" fill="#1e0030"/>
  <g clip-path="url(#clippath)">
    <g>
      <image width="2408" height="1791" transform="translate(19.2 26) scale(0)" xlink:href="Primary Pixel Floors logo-2.png" isolation="isolate"/>
      <image width="2174" height="1743" transform="translate(7 5.6) scale(0)" xlink:href="Primary Pixel Floors logo-3.png" isolation="isolate"/>
      <image width="1778" height="1682" transform="translate(54.4 9) scale(0)" xlink:href="Primary Pixel Floors logo-4.png" isolation="isolate"/>
    </g>
  </g>
  <g clip-path="url(#clippath-1)">
    <image width="1952" height="1645" transform="translate(34 22.9) scale(0)" xlink:href="Primary Pixel Floors logo-5.png" isolation="isolate"/>
  </g>
</svg>